<svg xmlns="http://www.w3.org/2000/svg" viewBox="0 0 830 386" font-family="system-ui, -apple-system, 'Segoe UI', sans-serif">
<style>.bg{fill:#FFFFFF}.fg{fill:#000000}.bar{shape-rendering:crispEdges}@media(prefers-color-scheme:dark){.bg{fill:#1E1E1E}.fg{fill:#E6E6E6}}</style>
<rect class="bg" width="830" height="386"/>
<rect x="20" y="20" width="14" height="14" fill="#474A8A"/>
<text class="fg" x="40" y="32" font-size="12">JIT=tracing</text>
<rect x="160" y="20" width="14" height="14" fill="#787CB5"/>
<text class="fg" x="180" y="32" font-size="12">OPcache</text>
<text class="fg" x="140.00" y="344" text-anchor="middle" font-size="11">0</text>
<text class="fg" x="260.00" y="344" text-anchor="middle" font-size="11">1M</text>
<text class="fg" x="380.00" y="344" text-anchor="middle" font-size="11">2M</text>
<text class="fg" x="500.00" y="344" text-anchor="middle" font-size="11">3M</text>
<text class="fg" x="620.00" y="344" text-anchor="middle" font-size="11">4M</text>
<text class="fg" x="740.00" y="344" text-anchor="middle" font-size="11">5M</text>
<text class="fg" x="440.00" y="366" text-anchor="middle" font-size="12" font-weight="600">Lookups / second</text>
<text class="fg" x="132" y="82.5" text-anchor="end" font-size="12" font-weight="600">RadixRouter (cached)</text>
<rect class="bar" x="140" y="60.0" width="486.52" height="18" fill="#474A8A"/>
<text class="fg" x="632.52" y="73.0" font-size="11">4,054,305</text>
<rect class="bar" x="140" y="78.0" width="323.60" height="18" fill="#787CB5"/>
<text class="fg" x="469.60" y="91.0" font-size="11">2,696,664</text>
<text class="fg" x="132" y="126.5" text-anchor="end" font-size="12" font-weight="600">RadixRouter</text>
<rect class="bar" x="140" y="104.0" width="459.39" height="18" fill="#474A8A"/>
<text class="fg" x="605.39" y="117.0" font-size="11">3,828,280</text>
<rect class="bar" x="140" y="122.0" width="307.14" height="18" fill="#787CB5"/>
<text class="fg" x="453.14" y="135.0" font-size="11">2,559,473</text>
<text class="fg" x="132" y="170.5" text-anchor="end" font-size="12" font-weight="600">Symfony (cached)</text>
<rect class="bar" x="140" y="148.0" width="219.91" height="18" fill="#474A8A"/>
<text class="fg" x="365.91" y="161.0" font-size="11">1,832,624</text>
<rect class="bar" x="140" y="166.0" width="155.07" height="18" fill="#787CB5"/>
<text class="fg" x="301.07" y="179.0" font-size="11">1,292,239</text>
<text class="fg" x="132" y="214.5" text-anchor="end" font-size="12" font-weight="600">Symfony</text>
<rect class="bar" x="140" y="192.0" width="209.98" height="18" fill="#474A8A"/>
<text class="fg" x="355.98" y="205.0" font-size="11">1,749,792</text>
<rect class="bar" x="140" y="210.0" width="149.82" height="18" fill="#787CB5"/>
<text class="fg" x="295.82" y="223.0" font-size="11">1,248,468</text>
<text class="fg" x="132" y="258.5" text-anchor="end" font-size="12" font-weight="600">FastRoute (cached)</text>
<rect class="bar" x="140" y="236.0" width="160.19" height="18" fill="#474A8A"/>
<text class="fg" x="306.19" y="249.0" font-size="11">1,334,951</text>
<rect class="bar" x="140" y="254.0" width="139.54" height="18" fill="#787CB5"/>
<text class="fg" x="285.54" y="267.0" font-size="11">1,162,841</text>
<text class="fg" x="132" y="302.5" text-anchor="end" font-size="12" font-weight="600">FastRoute</text>
<rect class="bar" x="140" y="280.0" width="158.62" height="18" fill="#474A8A"/>
<text class="fg" x="304.62" y="293.0" font-size="11">1,321,844</text>
<rect class="bar" x="140" y="298.0" width="137.23" height="18" fill="#787CB5"/>
<text class="fg" x="283.23" y="311.0" font-size="11">1,143,600</text>
</svg>
