<svg xmlns="http://www.w3.org/2000/svg" viewBox="0 0 830 386" font-family="system-ui, -apple-system, 'Segoe UI', sans-serif">
<style>.bg{fill:#FFFFFF}.fg{fill:#000000}.bar{shape-rendering:crispEdges}@media(prefers-color-scheme:dark){.bg{fill:#1E1E1E}.fg{fill:#E6E6E6}}</style>
<rect class="bg" width="830" height="386"/>
<rect x="20" y="20" width="14" height="14" fill="#474A8A"/>
<text class="fg" x="40" y="32" font-size="12">JIT=tracing</text>
<rect x="160" y="20" width="14" height="14" fill="#787CB5"/>
<text class="fg" x="180" y="32" font-size="12">OPcache</text>
<text class="fg" x="140.00" y="344" text-anchor="middle" font-size="11">0</text>
<text class="fg" x="240.00" y="344" text-anchor="middle" font-size="11">500K</text>
<text class="fg" x="340.00" y="344" text-anchor="middle" font-size="11">1M</text>
<text class="fg" x="440.00" y="344" text-anchor="middle" font-size="11">1.5M</text>
<text class="fg" x="540.00" y="344" text-anchor="middle" font-size="11">2M</text>
<text class="fg" x="640.00" y="344" text-anchor="middle" font-size="11">2.5M</text>
<text class="fg" x="740.00" y="344" text-anchor="middle" font-size="11">3M</text>
<text class="fg" x="440.00" y="366" text-anchor="middle" font-size="12" font-weight="600">Lookups / second</text>
<text class="fg" x="132" y="82.5" text-anchor="end" font-size="12" font-weight="600">RadixRouter (cached)</text>
<rect class="bar" x="140" y="60.0" width="597.71" height="18" fill="#474A8A"/>
<text class="fg" x="743.71" y="73.0" font-size="11">2,988,542</text>
<rect class="bar" x="140" y="78.0" width="383.52" height="18" fill="#787CB5"/>
<text class="fg" x="529.52" y="91.0" font-size="11">1,917,588</text>
<text class="fg" x="132" y="126.5" text-anchor="end" font-size="12" font-weight="600">RadixRouter</text>
<rect class="bar" x="140" y="104.0" width="517.87" height="18" fill="#474A8A"/>
<text class="fg" x="663.87" y="117.0" font-size="11">2,589,366</text>
<rect class="bar" x="140" y="122.0" width="342.01" height="18" fill="#787CB5"/>
<text class="fg" x="488.01" y="135.0" font-size="11">1,710,056</text>
<text class="fg" x="132" y="170.5" text-anchor="end" font-size="12" font-weight="600">Symfony (cached)</text>
<rect class="bar" x="140" y="148.0" width="285.97" height="18" fill="#474A8A"/>
<text class="fg" x="431.97" y="161.0" font-size="11">1,429,827</text>
<rect class="bar" x="140" y="166.0" width="192.44" height="18" fill="#787CB5"/>
<text class="fg" x="338.44" y="179.0" font-size="11">962,187</text>
<text class="fg" x="132" y="214.5" text-anchor="end" font-size="12" font-weight="600">Symfony</text>
<rect class="bar" x="140" y="192.0" width="274.80" height="18" fill="#474A8A"/>
<text class="fg" x="420.80" y="205.0" font-size="11">1,373,995</text>
<rect class="bar" x="140" y="210.0" width="186.24" height="18" fill="#787CB5"/>
<text class="fg" x="332.24" y="223.0" font-size="11">931,204</text>
<text class="fg" x="132" y="258.5" text-anchor="end" font-size="12" font-weight="600">FastRoute (cached)</text>
<rect class="bar" x="140" y="236.0" width="195.09" height="18" fill="#474A8A"/>
<text class="fg" x="341.09" y="249.0" font-size="11">975,452</text>
<rect class="bar" x="140" y="254.0" width="167.22" height="18" fill="#787CB5"/>
<text class="fg" x="313.22" y="267.0" font-size="11">836,095</text>
<text class="fg" x="132" y="302.5" text-anchor="end" font-size="12" font-weight="600">FastRoute</text>
<rect class="bar" x="140" y="280.0" width="184.25" height="18" fill="#474A8A"/>
<text class="fg" x="330.25" y="293.0" font-size="11">921,266</text>
<rect class="bar" x="140" y="298.0" width="161.33" height="18" fill="#787CB5"/>
<text class="fg" x="307.33" y="311.0" font-size="11">806,668</text>
</svg>
