<svg xmlns="http://www.w3.org/2000/svg" viewBox="0 0 830 386" font-family="system-ui, -apple-system, 'Segoe UI', sans-serif">
<style>.bg{fill:#FFFFFF}.fg{fill:#000000}.bar{shape-rendering:crispEdges}@media(prefers-color-scheme:dark){.bg{fill:#1E1E1E}.fg{fill:#E6E6E6}}</style>
<rect class="bg" width="830" height="386"/>
<rect x="20" y="20" width="14" height="14" fill="#474A8A"/>
<text class="fg" x="40" y="32" font-size="12">JIT=tracing</text>
<rect x="160" y="20" width="14" height="14" fill="#787CB5"/>
<text class="fg" x="180" y="32" font-size="12">OPcache</text>
<text class="fg" x="140.00" y="344" text-anchor="middle" font-size="11">0</text>
<text class="fg" x="290.00" y="344" text-anchor="middle" font-size="11">1M</text>
<text class="fg" x="440.00" y="344" text-anchor="middle" font-size="11">2M</text>
<text class="fg" x="590.00" y="344" text-anchor="middle" font-size="11">3M</text>
<text class="fg" x="740.00" y="344" text-anchor="middle" font-size="11">4M</text>
<text class="fg" x="440.00" y="366" text-anchor="middle" font-size="12" font-weight="600">Lookups / second</text>
<text class="fg" x="132" y="82.5" text-anchor="end" font-size="12" font-weight="600">RadixRouter (cached)</text>
<rect class="bar" x="140" y="60.0" width="559.23" height="18" fill="#474A8A"/>
<text class="fg" x="705.23" y="73.0" font-size="11">3,728,221</text>
<rect class="bar" x="140" y="78.0" width="332.44" height="18" fill="#787CB5"/>
<text class="fg" x="478.44" y="91.0" font-size="11">2,216,298</text>
<text class="fg" x="132" y="126.5" text-anchor="end" font-size="12" font-weight="600">RadixRouter</text>
<rect class="bar" x="140" y="104.0" width="450.47" height="18" fill="#474A8A"/>
<text class="fg" x="596.47" y="117.0" font-size="11">3,003,143</text>
<rect class="bar" x="140" y="122.0" width="288.03" height="18" fill="#787CB5"/>
<text class="fg" x="434.03" y="135.0" font-size="11">1,920,208</text>
<text class="fg" x="132" y="170.5" text-anchor="end" font-size="12" font-weight="600">Symfony (cached)</text>
<rect class="bar" x="140" y="148.0" width="113.82" height="18" fill="#474A8A"/>
<text class="fg" x="259.82" y="161.0" font-size="11">758,770</text>
<rect class="bar" x="140" y="166.0" width="92.30" height="18" fill="#787CB5"/>
<text class="fg" x="238.30" y="179.0" font-size="11">615,317</text>
<text class="fg" x="132" y="214.5" text-anchor="end" font-size="12" font-weight="600">Symfony</text>
<rect class="bar" x="140" y="192.0" width="94.49" height="18" fill="#474A8A"/>
<text class="fg" x="240.49" y="205.0" font-size="11">629,960</text>
<rect class="bar" x="140" y="210.0" width="84.48" height="18" fill="#787CB5"/>
<text class="fg" x="230.48" y="223.0" font-size="11">563,180</text>
<text class="fg" x="132" y="258.5" text-anchor="end" font-size="12" font-weight="600">FastRoute</text>
<rect class="bar" x="140" y="236.0" width="26.56" height="18" fill="#474A8A"/>
<text class="fg" x="172.56" y="249.0" font-size="11">177,050</text>
<rect class="bar" x="140" y="254.0" width="23.41" height="18" fill="#787CB5"/>
<text class="fg" x="169.41" y="267.0" font-size="11">156,068</text>
<text class="fg" x="132" y="302.5" text-anchor="end" font-size="12" font-weight="600">FastRoute (cached)</text>
<rect class="bar" x="140" y="280.0" width="26.24" height="18" fill="#474A8A"/>
<text class="fg" x="172.24" y="293.0" font-size="11">174,938</text>
<rect class="bar" x="140" y="298.0" width="24.58" height="18" fill="#787CB5"/>
<text class="fg" x="170.58" y="311.0" font-size="11">163,835</text>
</svg>
