<svg xmlns="http://www.w3.org/2000/svg" viewBox="0 0 830 386" font-family="system-ui, -apple-system, 'Segoe UI', sans-serif">
<style>.bg{fill:#FFFFFF}.fg{fill:#000000}.bar{shape-rendering:crispEdges}@media(prefers-color-scheme:dark){.bg{fill:#1E1E1E}.fg{fill:#E6E6E6}}</style>
<rect class="bg" width="830" height="386"/>
<rect x="20" y="20" width="14" height="14" fill="#474A8A"/>
<text class="fg" x="40" y="32" font-size="12">JIT=tracing</text>
<rect x="160" y="20" width="14" height="14" fill="#787CB5"/>
<text class="fg" x="180" y="32" font-size="12">OPcache</text>
<text class="fg" x="140.00" y="344" text-anchor="middle" font-size="11">0</text>
<text class="fg" x="290.00" y="344" text-anchor="middle" font-size="11">1M</text>
<text class="fg" x="440.00" y="344" text-anchor="middle" font-size="11">2M</text>
<text class="fg" x="590.00" y="344" text-anchor="middle" font-size="11">3M</text>
<text class="fg" x="740.00" y="344" text-anchor="middle" font-size="11">4M</text>
<text class="fg" x="440.00" y="366" text-anchor="middle" font-size="12" font-weight="600">Lookups / second</text>
<text class="fg" x="132" y="82.5" text-anchor="end" font-size="12" font-weight="600">RadixRouter (cached)</text>
<rect class="bar" x="140" y="60.0" width="497.88" height="18" fill="#474A8A"/>
<text class="fg" x="643.88" y="73.0" font-size="11">3,319,187</text>
<rect class="bar" x="140" y="78.0" width="304.29" height="18" fill="#787CB5"/>
<text class="fg" x="450.29" y="91.0" font-size="11">2,028,621</text>
<text class="fg" x="132" y="126.5" text-anchor="end" font-size="12" font-weight="600">RadixRouter</text>
<rect class="bar" x="140" y="104.0" width="453.11" height="18" fill="#474A8A"/>
<text class="fg" x="599.11" y="117.0" font-size="11">3,020,767</text>
<rect class="bar" x="140" y="122.0" width="275.13" height="18" fill="#787CB5"/>
<text class="fg" x="421.13" y="135.0" font-size="11">1,834,220</text>
<text class="fg" x="132" y="170.5" text-anchor="end" font-size="12" font-weight="600">Symfony (cached)</text>
<rect class="bar" x="140" y="148.0" width="221.73" height="18" fill="#474A8A"/>
<text class="fg" x="367.73" y="161.0" font-size="11">1,478,217</text>
<rect class="bar" x="140" y="166.0" width="143.88" height="18" fill="#787CB5"/>
<text class="fg" x="289.88" y="179.0" font-size="11">959,175</text>
<text class="fg" x="132" y="214.5" text-anchor="end" font-size="12" font-weight="600">Symfony</text>
<rect class="bar" x="140" y="192.0" width="213.90" height="18" fill="#474A8A"/>
<text class="fg" x="359.90" y="205.0" font-size="11">1,425,968</text>
<rect class="bar" x="140" y="210.0" width="141.48" height="18" fill="#787CB5"/>
<text class="fg" x="287.48" y="223.0" font-size="11">943,181</text>
<text class="fg" x="132" y="258.5" text-anchor="end" font-size="12" font-weight="600">FastRoute (cached)</text>
<rect class="bar" x="140" y="236.0" width="175.75" height="18" fill="#474A8A"/>
<text class="fg" x="321.75" y="249.0" font-size="11">1,171,651</text>
<rect class="bar" x="140" y="254.0" width="147.27" height="18" fill="#787CB5"/>
<text class="fg" x="293.27" y="267.0" font-size="11">981,832</text>
<text class="fg" x="132" y="302.5" text-anchor="end" font-size="12" font-weight="600">FastRoute</text>
<rect class="bar" x="140" y="280.0" width="170.83" height="18" fill="#474A8A"/>
<text class="fg" x="316.83" y="293.0" font-size="11">1,138,856</text>
<rect class="bar" x="140" y="298.0" width="144.07" height="18" fill="#787CB5"/>
<text class="fg" x="290.07" y="311.0" font-size="11">960,457</text>
</svg>
