<svg xmlns="http://www.w3.org/2000/svg" viewBox="0 0 870 276" font-family="system-ui, -apple-system, 'Segoe UI', sans-serif">
<style>.fg{fill:#000000}.accent{fill:#474A8A}.bar{shape-rendering:crispEdges}.div{stroke:#C9CBE6;stroke-width:1}.tick{fill:#787CB5}@media(prefers-color-scheme:dark){.fg{fill:#E6E6E6}.accent{fill:#B0B3D6}.tick{fill:#B0B3D6}}</style>
<text class="accent" x="20" y="30" font-size="14" font-weight="600">Route list: github (782 routes)</text>
<rect x="20" y="44" width="14" height="14" fill="#474A8A"/>
<text class="fg" x="40" y="56" font-size="12">JIT=tracing</text>
<rect x="160" y="44" width="14" height="14" fill="#787CB5"/>
<text class="fg" x="180" y="56" font-size="12">JIT=off</text>
<text class="tick" x="150.00" y="86.0" text-anchor="middle" font-size="11">0</text>
<line class="div" x1="262.00" y1="91.0" x2="262.00" y2="264.0"/>
<text class="tick" x="262.00" y="86.0" text-anchor="middle" font-size="11">500K</text>
<line class="div" x1="374.00" y1="91.0" x2="374.00" y2="264.0"/>
<text class="tick" x="374.00" y="86.0" text-anchor="middle" font-size="11">1M</text>
<line class="div" x1="486.00" y1="91.0" x2="486.00" y2="264.0"/>
<text class="tick" x="486.00" y="86.0" text-anchor="middle" font-size="11">1.5M</text>
<line class="div" x1="598.00" y1="91.0" x2="598.00" y2="264.0"/>
<text class="tick" x="598.00" y="86.0" text-anchor="middle" font-size="11">2M</text>
<line class="div" x1="710.00" y1="91.0" x2="710.00" y2="264.0"/>
<text class="tick" x="710.00" y="86.0" text-anchor="middle" font-size="11">2.5M</text>
<line class="div" x1="150" y1="91.0" x2="150" y2="264.0"/>
<text class="fg" x="138" y="123.5" text-anchor="end" font-size="12">radixrouter</text>
<rect class="bar" x="150" y="98.0" width="534.08" height="18" fill="#474A8A"/>
<text class="fg" x="722" y="111.0" font-size="11">2.38M/s  (419 ns/op)</text>
<rect class="bar" x="150" y="122.0" width="354.59" height="18" fill="#787CB5"/>
<text class="fg" x="722" y="135.0" font-size="11">1.58M/s  (632 ns/op)</text>
<text class="fg" x="138" y="185.5" text-anchor="end" font-size="12">symfony</text>
<rect class="bar" x="150" y="160.0" width="145.72" height="18" fill="#474A8A"/>
<text class="fg" x="722" y="173.0" font-size="11">651K/s  (1,537 ns/op)</text>
<rect class="bar" x="150" y="184.0" width="106.35" height="18" fill="#787CB5"/>
<text class="fg" x="722" y="197.0" font-size="11">475K/s  (2,106 ns/op)</text>
<text class="fg" x="138" y="247.5" text-anchor="end" font-size="12">fastroute</text>
<rect class="bar" x="150" y="222.0" width="41.07" height="18" fill="#474A8A"/>
<text class="fg" x="722" y="235.0" font-size="11">183K/s  (5,454 ns/op)</text>
<rect class="bar" x="150" y="246.0" width="36.64" height="18" fill="#787CB5"/>
<text class="fg" x="722" y="259.0" font-size="11">164K/s  (6,113 ns/op)</text>
</svg>
