<svg xmlns="http://www.w3.org/2000/svg" viewBox="0 0 830 386" font-family="system-ui, -apple-system, 'Segoe UI', sans-serif">
<style>.bg{fill:#FFFFFF}.fg{fill:#000000}.bar{shape-rendering:crispEdges}@media(prefers-color-scheme:dark){.bg{fill:#1E1E1E}.fg{fill:#E6E6E6}}</style>
<rect class="bg" width="830" height="386"/>
<rect x="20" y="20" width="14" height="14" fill="#474A8A"/>
<text class="fg" x="40" y="32" font-size="12">JIT=tracing</text>
<rect x="160" y="20" width="14" height="14" fill="#787CB5"/>
<text class="fg" x="180" y="32" font-size="12">OPcache</text>
<text class="fg" x="140.00" y="344" text-anchor="middle" font-size="11">0</text>
<text class="fg" x="240.00" y="344" text-anchor="middle" font-size="11">500K</text>
<text class="fg" x="340.00" y="344" text-anchor="middle" font-size="11">1M</text>
<text class="fg" x="440.00" y="344" text-anchor="middle" font-size="11">1.5M</text>
<text class="fg" x="540.00" y="344" text-anchor="middle" font-size="11">2M</text>
<text class="fg" x="640.00" y="344" text-anchor="middle" font-size="11">2.5M</text>
<text class="fg" x="740.00" y="344" text-anchor="middle" font-size="11">3M</text>
<text class="fg" x="440.00" y="366" text-anchor="middle" font-size="12" font-weight="600">Lookups / second</text>
<text class="fg" x="132" y="82.5" text-anchor="end" font-size="12" font-weight="600">RadixRouter (cached)</text>
<rect class="bar" x="140" y="60.0" width="552.07" height="18" fill="#474A8A"/>
<text class="fg" x="698.07" y="73.0" font-size="11">2,760,353</text>
<rect class="bar" x="140" y="78.0" width="341.72" height="18" fill="#787CB5"/>
<text class="fg" x="487.72" y="91.0" font-size="11">1,708,606</text>
<text class="fg" x="132" y="126.5" text-anchor="end" font-size="12" font-weight="600">RadixRouter</text>
<rect class="bar" x="140" y="104.0" width="440.92" height="18" fill="#474A8A"/>
<text class="fg" x="586.92" y="117.0" font-size="11">2,204,619</text>
<rect class="bar" x="140" y="122.0" width="305.91" height="18" fill="#787CB5"/>
<text class="fg" x="451.91" y="135.0" font-size="11">1,529,557</text>
<text class="fg" x="132" y="170.5" text-anchor="end" font-size="12" font-weight="600">Symfony (cached)</text>
<rect class="bar" x="140" y="148.0" width="138.32" height="18" fill="#474A8A"/>
<text class="fg" x="284.32" y="161.0" font-size="11">691,613</text>
<rect class="bar" x="140" y="166.0" width="110.77" height="18" fill="#787CB5"/>
<text class="fg" x="256.77" y="179.0" font-size="11">553,852</text>
<text class="fg" x="132" y="214.5" text-anchor="end" font-size="12" font-weight="600">Symfony</text>
<rect class="bar" x="140" y="192.0" width="131.90" height="18" fill="#474A8A"/>
<text class="fg" x="277.90" y="205.0" font-size="11">659,500</text>
<rect class="bar" x="140" y="210.0" width="106.59" height="18" fill="#787CB5"/>
<text class="fg" x="252.59" y="223.0" font-size="11">532,951</text>
<text class="fg" x="132" y="258.5" text-anchor="end" font-size="12" font-weight="600">FastRoute (cached)</text>
<rect class="bar" x="140" y="236.0" width="81.95" height="18" fill="#474A8A"/>
<text class="fg" x="227.95" y="249.0" font-size="11">409,749</text>
<rect class="bar" x="140" y="254.0" width="70.12" height="18" fill="#787CB5"/>
<text class="fg" x="216.12" y="267.0" font-size="11">350,604</text>
<text class="fg" x="132" y="302.5" text-anchor="end" font-size="12" font-weight="600">FastRoute</text>
<rect class="bar" x="140" y="280.0" width="77.61" height="18" fill="#474A8A"/>
<text class="fg" x="223.61" y="293.0" font-size="11">388,033</text>
<rect class="bar" x="140" y="298.0" width="65.79" height="18" fill="#787CB5"/>
<text class="fg" x="211.79" y="311.0" font-size="11">328,943</text>
</svg>
