<svg xmlns="http://www.w3.org/2000/svg" viewBox="0 0 830 386" font-family="system-ui, -apple-system, 'Segoe UI', sans-serif">
<style>.bg{fill:#FFFFFF}.fg{fill:#000000}.bar{shape-rendering:crispEdges}@media(prefers-color-scheme:dark){.bg{fill:#1E1E1E}.fg{fill:#E6E6E6}}</style>
<rect class="bg" width="830" height="386"/>
<rect x="20" y="20" width="14" height="14" fill="#474A8A"/>
<text class="fg" x="40" y="32" font-size="12">JIT=tracing</text>
<rect x="160" y="20" width="14" height="14" fill="#787CB5"/>
<text class="fg" x="180" y="32" font-size="12">OPcache</text>
<text class="fg" x="140.00" y="344" text-anchor="middle" font-size="11">0</text>
<text class="fg" x="290.00" y="344" text-anchor="middle" font-size="11">1M</text>
<text class="fg" x="440.00" y="344" text-anchor="middle" font-size="11">2M</text>
<text class="fg" x="590.00" y="344" text-anchor="middle" font-size="11">3M</text>
<text class="fg" x="740.00" y="344" text-anchor="middle" font-size="11">4M</text>
<text class="fg" x="440.00" y="366" text-anchor="middle" font-size="12" font-weight="600">Lookups / second</text>
<text class="fg" x="132" y="82.5" text-anchor="end" font-size="12" font-weight="600">RadixRouter (cached)</text>
<rect class="bar" x="140" y="60.0" width="542.27" height="18" fill="#474A8A"/>
<text class="fg" x="688.27" y="73.0" font-size="11">3,615,149</text>
<rect class="bar" x="140" y="78.0" width="366.40" height="18" fill="#787CB5"/>
<text class="fg" x="512.40" y="91.0" font-size="11">2,442,647</text>
<text class="fg" x="132" y="126.5" text-anchor="end" font-size="12" font-weight="600">RadixRouter</text>
<rect class="bar" x="140" y="104.0" width="491.66" height="18" fill="#474A8A"/>
<text class="fg" x="637.66" y="117.0" font-size="11">3,277,766</text>
<rect class="bar" x="140" y="122.0" width="332.96" height="18" fill="#787CB5"/>
<text class="fg" x="478.96" y="135.0" font-size="11">2,219,749</text>
<text class="fg" x="132" y="170.5" text-anchor="end" font-size="12" font-weight="600">Symfony</text>
<rect class="bar" x="140" y="148.0" width="125.23" height="18" fill="#474A8A"/>
<text class="fg" x="271.23" y="161.0" font-size="11">834,878</text>
<rect class="bar" x="140" y="166.0" width="102.11" height="18" fill="#787CB5"/>
<text class="fg" x="248.11" y="179.0" font-size="11">680,715</text>
<text class="fg" x="132" y="214.5" text-anchor="end" font-size="12" font-weight="600">Symfony (cached)</text>
<rect class="bar" x="140" y="192.0" width="122.43" height="18" fill="#474A8A"/>
<text class="fg" x="268.43" y="205.0" font-size="11">816,232</text>
<rect class="bar" x="140" y="210.0" width="104.99" height="18" fill="#787CB5"/>
<text class="fg" x="250.99" y="223.0" font-size="11">699,918</text>
<text class="fg" x="132" y="258.5" text-anchor="end" font-size="12" font-weight="600">FastRoute</text>
<rect class="bar" x="140" y="236.0" width="85.46" height="18" fill="#474A8A"/>
<text class="fg" x="231.46" y="249.0" font-size="11">569,726</text>
<rect class="bar" x="140" y="254.0" width="76.47" height="18" fill="#787CB5"/>
<text class="fg" x="222.47" y="267.0" font-size="11">509,821</text>
<text class="fg" x="132" y="302.5" text-anchor="end" font-size="12" font-weight="600">FastRoute (cached)</text>
<rect class="bar" x="140" y="280.0" width="85.40" height="18" fill="#474A8A"/>
<text class="fg" x="231.40" y="293.0" font-size="11">569,326</text>
<rect class="bar" x="140" y="298.0" width="76.07" height="18" fill="#787CB5"/>
<text class="fg" x="222.07" y="311.0" font-size="11">507,136</text>
</svg>
