<svg xmlns="http://www.w3.org/2000/svg" viewBox="0 0 870 462" font-family="system-ui, -apple-system, 'Segoe UI', sans-serif">
<style>.fg{fill:#000000}.accent{fill:#474A8A}.bar{shape-rendering:crispEdges}.div{stroke:#C9CBE6;stroke-width:1}.tick{fill:#787CB5}@media(prefers-color-scheme:dark){.fg{fill:#E6E6E6}.accent{fill:#B0B3D6}.tick{fill:#B0B3D6}}</style>
<text class="accent" x="20" y="30" font-size="14" font-weight="600">Route list: kubernetes (562 routes)</text>
<rect x="20" y="44" width="14" height="14" fill="#474A8A"/>
<text class="fg" x="40" y="56" font-size="12">JIT=tracing</text>
<rect x="160" y="44" width="14" height="14" fill="#787CB5"/>
<text class="fg" x="180" y="56" font-size="12">JIT=off</text>
<text class="tick" x="150.00" y="86.0" text-anchor="middle" font-size="11">0</text>
<line class="div" x1="262.00" y1="91.0" x2="262.00" y2="450.0"/>
<text class="tick" x="262.00" y="86.0" text-anchor="middle" font-size="11">1M</text>
<line class="div" x1="374.00" y1="91.0" x2="374.00" y2="450.0"/>
<text class="tick" x="374.00" y="86.0" text-anchor="middle" font-size="11">2M</text>
<line class="div" x1="486.00" y1="91.0" x2="486.00" y2="450.0"/>
<text class="tick" x="486.00" y="86.0" text-anchor="middle" font-size="11">3M</text>
<line class="div" x1="598.00" y1="91.0" x2="598.00" y2="450.0"/>
<text class="tick" x="598.00" y="86.0" text-anchor="middle" font-size="11">4M</text>
<line class="div" x1="710.00" y1="91.0" x2="710.00" y2="450.0"/>
<text class="tick" x="710.00" y="86.0" text-anchor="middle" font-size="11">5M</text>
<line class="div" x1="150" y1="91.0" x2="150" y2="450.0"/>
<text class="fg" x="138" y="123.5" text-anchor="end" font-size="12">radixrouter (cached)</text>
<rect class="bar" x="150" y="98.0" width="477.30" height="18" fill="#474A8A"/>
<text class="fg" x="722" y="111.0" font-size="11">4.26M/s  (235 ns/op)</text>
<rect class="bar" x="150" y="122.0" width="294.71" height="18" fill="#787CB5"/>
<text class="fg" x="722" y="135.0" font-size="11">2.63M/s  (380 ns/op)</text>
<text class="fg" x="138" y="185.5" text-anchor="end" font-size="12">radixrouter</text>
<rect class="bar" x="150" y="160.0" width="427.82" height="18" fill="#474A8A"/>
<text class="fg" x="722" y="173.0" font-size="11">3.82M/s  (262 ns/op)</text>
<rect class="bar" x="150" y="184.0" width="266.19" height="18" fill="#787CB5"/>
<text class="fg" x="722" y="197.0" font-size="11">2.38M/s  (421 ns/op)</text>
<text class="fg" x="138" y="247.5" text-anchor="end" font-size="12">symfony (cached)</text>
<rect class="bar" x="150" y="222.0" width="251.49" height="18" fill="#474A8A"/>
<text class="fg" x="722" y="235.0" font-size="11">2.25M/s  (445 ns/op)</text>
<rect class="bar" x="150" y="246.0" width="175.62" height="18" fill="#787CB5"/>
<text class="fg" x="722" y="259.0" font-size="11">1.57M/s  (638 ns/op)</text>
<text class="fg" x="138" y="309.5" text-anchor="end" font-size="12">symfony</text>
<rect class="bar" x="150" y="284.0" width="168.07" height="18" fill="#474A8A"/>
<text class="fg" x="722" y="297.0" font-size="11">1.50M/s  (666 ns/op)</text>
<rect class="bar" x="150" y="308.0" width="120.22" height="18" fill="#787CB5"/>
<text class="fg" x="722" y="321.0" font-size="11">1.07M/s  (932 ns/op)</text>
<text class="fg" x="138" y="371.5" text-anchor="end" font-size="12">fastroute (cached)</text>
<rect class="bar" x="150" y="346.0" width="151.18" height="18" fill="#474A8A"/>
<text class="fg" x="722" y="359.0" font-size="11">1.35M/s  (741 ns/op)</text>
<rect class="bar" x="150" y="370.0" width="131.00" height="18" fill="#787CB5"/>
<text class="fg" x="722" y="383.0" font-size="11">1.17M/s  (855 ns/op)</text>
<text class="fg" x="138" y="433.5" text-anchor="end" font-size="12">fastroute</text>
<rect class="bar" x="150" y="408.0" width="102.38" height="18" fill="#474A8A"/>
<text class="fg" x="722" y="421.0" font-size="11">914K/s  (1,094 ns/op)</text>
<rect class="bar" x="150" y="432.0" width="86.01" height="18" fill="#787CB5"/>
<text class="fg" x="722" y="445.0" font-size="11">768K/s  (1,302 ns/op)</text>
</svg>
