<?xml version="1.0" encoding="utf-8"?>
<svg xmlns="http://www.w3.org/2000/svg" viewBox="0 300 1064.194 200" width="1064.19px" height="200px" xmlns:bx="https://boxy-svg.com" preserveAspectRatio="none"><style>:root{color-scheme: light dark;} .logo-text{fill:#111;} @media (prefers-color-scheme: dark){.logo-text{fill:#fff;}}</style><g id="object-2"><g style="" transform="matrix(1, 0, 0, 1, -50, 0)" id="object-0"><path d="M 150.001 300 L 200.001 400 L 100.001 400 L 150.001 300 Z" bx:shape="triangle 100.001 300 100 100 0.5 0 1@da3257a3" style="fill: rgb(255, 199, 0);"/><path d="M 100 400 L 150 500 L 50 500 L 100 400 Z" bx:shape="triangle 50 400 100 100 0.5 0 1@9f994d1f" style="fill: rgb(34, 139, 34);"/><path d="M 200 400 L 250 500 L 150 500 L 200 400 Z" bx:shape="triangle 150 400 100 100 0.5 0 1@486b89de" style="fill: rgb(71, 74, 138);"/></g><g transform="matrix(1, 0, 0, 1, -50.415985, -40.984322)" id="object-1"><path d="M 340.417 440.984 L 360.417 460.984 L 360.417 480.985 L 348.015 499.487 L 360.417 540.984 L 340.417 540.984 L 328.416 500.985 L 320.416 500.985 L 320.416 540.984 L 300.416 540.984 L 300.416 440.984 L 340.417 440.984 Z M 320.416 480.985 L 340.417 480.985 L 340.417 460.984 L 320.416 460.984 L 320.416 480.985 Z" class="logo-text" style="stroke-width: 3px;"/><path d="M 395.311 441.246 L 375.416 461.141 L 375.416 540.721 L 395.311 540.721 L 395.311 500.931 L 415.205 500.931 L 415.205 540.721 L 435.101 540.721 L 435.101 461.141 L 415.205 441.246 L 395.311 441.246 Z M 395.311 461.141 L 415.205 461.141 L 415.205 481.036 L 395.311 481.036 L 395.311 461.141 Z" class="logo-text" style="stroke-width: 3px;"/><path d="M 450.416 441.453 L 450.416 540.515 L 490.041 540.515 L 509.853 520.702 L 509.853 461.265 L 490.041 441.453 L 450.416 441.453 Z M 470.229 461.265 L 490.041 461.265 L 490.041 520.702 L 470.229 520.702 L 470.229 461.265 Z" class="logo-text" style="stroke-width: 3px;"/><path d="M 575.416 441.33 L 595.277 490.984 L 575.416 540.638 L 595.277 540.638 L 605.209 515.812 L 615.14 540.638 L 635 540.638 L 615.14 490.984 L 635 441.33 L 615.14 441.33 L 605.209 466.157 L 595.277 441.33 L 575.416 441.33 Z" class="logo-text" style="stroke-width: 3px;"/><path d="M 565.417 440.984 L 565.417 460.984 L 555.417 460.984 L 555.417 520.987 L 565.417 520.987 L 565.417 540.984 L 525.416 540.984 L 525.416 520.987 L 535.415 520.987 L 535.415 460.984 L 525.416 460.984 L 525.416 440.984 L 565.417 440.984 Z" class="logo-text" style="stroke-width: 3px;"/><path d="M 719.61 440.984 L 739.61 460.984 L 739.61 480.985 L 727.208 499.487 L 739.61 540.984 L 719.61 540.984 L 707.609 500.985 L 699.609 500.985 L 699.609 540.984 L 679.609 540.984 L 679.609 440.984 L 719.61 440.984 Z M 699.609 480.985 L 719.61 480.985 L 719.61 460.984 L 699.609 460.984 L 699.609 480.985 Z" class="logo-text" style="stroke-width: 3px;"/><path d="M 774.609 440.984 L 754.609 460.984 L 754.609 520.984 L 774.609 540.984 L 794.612 540.984 L 814.609 520.984 L 814.609 460.984 L 794.612 440.984 L 774.609 440.984 Z M 774.609 460.984 L 794.612 460.984 L 794.612 520.984 L 774.609 520.984 L 774.609 460.984 Z" class="logo-text" style="stroke-width: 3px;"/><path d="M 829.609 440.984 L 829.609 520.984 L 849.608 540.984 L 869.608 540.984 L 889.609 520.984 L 889.609 440.984 L 869.608 440.984 L 869.608 520.984 L 849.608 520.984 L 849.608 440.984 L 829.609 440.984 Z" class="logo-text" style="stroke-width: 3px;"/><path d="M 904.609 440.984 L 904.609 460.984 L 924.609 460.984 L 924.609 540.984 L 944.609 540.984 L 944.609 460.984 L 964.609 460.984 L 964.609 440.984 L 904.609 440.984 Z" class="logo-text" style="stroke-width: 3px;"/><path d="M 979.609 440.984 L 979.609 540.984 L 1039.61 540.984 L 1039.61 520.984 L 999.613 520.984 L 999.613 500.984 L 1039.61 500.984 L 1039.61 480.984 L 999.613 480.984 L 999.613 460.984 L 1039.61 460.984 L 1039.61 440.984 L 979.609 440.984 Z" class="logo-text" style="stroke-width: 3px;"/><path d="M 1054.61 440.984 L 1054.61 540.984 L 1074.6 540.984 L 1074.6 500.983 L 1082.62 500.983 L 1094.62 540.984 L 1114.61 540.984 L 1102.21 499.483 L 1114.61 480.985 L 1114.61 460.984 L 1094.62 440.984 L 1054.61 440.984 Z M 1074.6 460.984 L 1094.62 460.984 L 1094.62 480.985 L 1074.6 480.985 L 1074.6 460.984 Z" class="logo-text" style="stroke-width: 3px;"/></g></g></svg>