<?xml version="1.0" encoding="utf-8"?>
<svg xmlns="http://www.w3.org/2000/svg" viewBox="-12.427 124.27 310.675 86.9894" width="310.675px" height="86.9894px" xmlns:bx="https://boxy-svg.com"><g id="object-0"><path d="M 111.844 167.765 L 136.697 211.259 L 161.551 211.259 L 111.844 124.27 L 62.135 211.259 L 86.99 211.259 L 111.844 167.765 Z" style="stroke-width: 1; fill: rgb(122, 134, 184); transform-box: fill-box; transform-origin: 50% 50%;" id="triangle-2"/><path d="M 130.483 99.412 L 173.978 149.12 L 86.989 149.12 L 130.483 99.412 Z" bx:shape="triangle 86.989 99.412 86.989 49.708 0.5 0 1@dfff8b95" style="stroke-width: 1; fill: rgb(122, 134, 184); transform-origin: 130.483px 124.266px;" transform="matrix(0, 1, -1, 0, 68.348999, 43.498016)" id="triangle-4"/><path d="M 298.248 124.271 L 248.54 167.765 L 198.832 124.271 L 248.54 124.27 L 298.248 124.271 Z M 298.248 211.259 L 198.832 211.259 L 248.54 167.765 L 298.248 211.259 Z" style="stroke-width: 1; fill: rgb(79, 91, 147);" id="path-1"/><path d="M -12.427 124.271 C -12.427 124.271 18.557 124.27 18.641 124.27 C 35.798 124.27 49.708 138.775 49.708 156.666 C 49.708 169.985 42.002 181.425 30.986 186.405 L -12.426 150.189 L -12.427 124.271 Z M -12.427 150.187 L -12.426 150.189 L -12.426 150.187 L -12.427 150.187 Z" style="stroke-width: 1; fill: rgb(79, 91, 147);"/><path d="M 99.416 124.27 L 99.416 186.405 L 49.708 186.405 L 99.416 124.27 Z" bx:shape="triangle 49.708 124.27 49.708 62.135 1 0 1@664443c1" style="stroke-width: 1; fill: rgb(122, 134, 184); transform-origin: 74.561px 155.337px;" transform="matrix(0, 1, -1, 0, -55.919548, 31.067413)" id="triangle-3"/></g></svg>