<?xml version="1.0" encoding="utf-8"?>
<svg xmlns="http://www.w3.org/2000/svg" viewBox="124.3197 208.1065 251.3606 83.787" width="251.361px" height="83.787px" xmlns:bx="https://boxy-svg.com" preserveAspectRatio="none"><g id="object-5" style="" transform="matrix(0.37238597869873047, 0, 0, 0.37238597869873047, 330.7076110839844, -16.22775650024417)"><path d="M -404.23 678.626 C -404.23 636.542 -436.94 602.424 -477.26 602.424 C -477.42 602.424 -477.56 602.424 -477.7 602.425 L -477.7 602.424 L -554.23 602.424 L -554.23 655.662 L -459 752.424 C -427.51 743.96 -404.23 714.128 -404.23 678.626 Z" style="stroke-width: 1; fill: rgb(79, 91, 147);" id="object-0"/><path d="M -291.73 602.424 L -404.23 827.424 L -347.98 827.424 L -291.73 714.924 L -235.48 827.424 L -179.23 827.424 L -291.73 602.424 Z" style="stroke-width: 1; fill: rgb(122, 134, 184);" id="object-1"/><path d="M -104.23 827.424 L 8.269 743.049 L 120.769 827.424 L -104.23 827.424 Z M -104.23 602.424 L 120.769 602.424 L 8.269 686.799 L -104.23 602.424 Z M -29.23 714.924 L -104.23 771.174 L -104.23 658.674 L -29.23 714.924 Z M 45.768 714.924 L 120.769 658.674 L 120.769 771.174 L 45.768 714.924 Z" style="fill: rgb(79, 91, 147);" id="object-2"/><path d="M 337.5 299.999 L 450 449.999 L 225 449.999 L 337.5 299.999 Z" bx:shape="triangle 225 299.999 225 150 0.5 0 1@354e86cc" style="fill: rgb(122, 134, 184); transform-box: fill-box; transform-origin: 50% 50%;" transform="matrix(0, 1, -1, 0, -441.731659, 339.925201)" id="object-3"/><path d="M 300 299.999 L 300 449.999 L 150 449.999 L 300 299.999 Z" bx:shape="triangle 150 299.999 150 150 1 0 1@74ac8091" style="stroke-width: 1; transform-origin: 225.001px 374.999px; fill: rgb(122, 134, 184);" transform="matrix(0, 1, -1, 0, -704.232193, 377.426453)" id="object-4"/></g></svg>