<svg xmlns="http://www.w3.org/2000/svg" viewBox="0 0 870 276" font-family="system-ui, -apple-system, 'Segoe UI', sans-serif">
<style>.fg{fill:#000000}.accent{fill:#474A8A}.bar{shape-rendering:crispEdges}.div{stroke:#C9CBE6;stroke-width:1}.tick{fill:#787CB5}@media(prefers-color-scheme:dark){.fg{fill:#E6E6E6}.accent{fill:#B0B3D6}.tick{fill:#B0B3D6}}</style>
<text class="accent" x="20" y="30" font-size="14" font-weight="600">Route list: simple (33 routes)</text>
<rect x="20" y="44" width="14" height="14" fill="#474A8A"/>
<text class="fg" x="40" y="56" font-size="12">JIT=tracing</text>
<rect x="160" y="44" width="14" height="14" fill="#787CB5"/>
<text class="fg" x="180" y="56" font-size="12">JIT=off</text>
<text class="tick" x="150.00" y="86.0" text-anchor="middle" font-size="11">0</text>
<line class="div" x1="290.00" y1="91.0" x2="290.00" y2="264.0"/>
<text class="tick" x="290.00" y="86.0" text-anchor="middle" font-size="11">2M</text>
<line class="div" x1="430.00" y1="91.0" x2="430.00" y2="264.0"/>
<text class="tick" x="430.00" y="86.0" text-anchor="middle" font-size="11">4M</text>
<line class="div" x1="570.00" y1="91.0" x2="570.00" y2="264.0"/>
<text class="tick" x="570.00" y="86.0" text-anchor="middle" font-size="11">6M</text>
<line class="div" x1="710.00" y1="91.0" x2="710.00" y2="264.0"/>
<text class="tick" x="710.00" y="86.0" text-anchor="middle" font-size="11">8M</text>
<line class="div" x1="150" y1="91.0" x2="150" y2="264.0"/>
<text class="fg" x="138" y="123.5" text-anchor="end" font-size="12">radixrouter</text>
<rect class="bar" x="150" y="98.0" width="424.59" height="18" fill="#474A8A"/>
<text class="fg" x="722" y="111.0" font-size="11">6.07M/s  (165 ns/op)</text>
<rect class="bar" x="150" y="122.0" width="245.04" height="18" fill="#787CB5"/>
<text class="fg" x="722" y="135.0" font-size="11">3.50M/s  (286 ns/op)</text>
<text class="fg" x="138" y="185.5" text-anchor="end" font-size="12">fastroute</text>
<rect class="bar" x="150" y="160.0" width="353.40" height="18" fill="#474A8A"/>
<text class="fg" x="722" y="173.0" font-size="11">5.05M/s  (198 ns/op)</text>
<rect class="bar" x="150" y="184.0" width="243.92" height="18" fill="#787CB5"/>
<text class="fg" x="722" y="197.0" font-size="11">3.48M/s  (287 ns/op)</text>
<text class="fg" x="138" y="247.5" text-anchor="end" font-size="12">symfony</text>
<rect class="bar" x="150" y="222.0" width="182.80" height="18" fill="#474A8A"/>
<text class="fg" x="722" y="235.0" font-size="11">2.61M/s  (383 ns/op)</text>
<rect class="bar" x="150" y="246.0" width="101.63" height="18" fill="#787CB5"/>
<text class="fg" x="722" y="259.0" font-size="11">1.45M/s  (689 ns/op)</text>
</svg>
