<svg xmlns="http://www.w3.org/2000/svg" viewBox="0 0 830 386" font-family="system-ui, -apple-system, 'Segoe UI', sans-serif">
<style>.bg{fill:#FFFFFF}.fg{fill:#000000}.bar{shape-rendering:crispEdges}@media(prefers-color-scheme:dark){.bg{fill:#1E1E1E}.fg{fill:#E6E6E6}}</style>
<rect class="bg" width="830" height="386"/>
<rect x="20" y="20" width="14" height="14" fill="#474A8A"/>
<text class="fg" x="40" y="32" font-size="12">JIT=tracing</text>
<rect x="160" y="20" width="14" height="14" fill="#787CB5"/>
<text class="fg" x="180" y="32" font-size="12">OPcache</text>
<text class="fg" x="140.00" y="344" text-anchor="middle" font-size="11">0</text>
<text class="fg" x="260.00" y="344" text-anchor="middle" font-size="11">2M</text>
<text class="fg" x="380.00" y="344" text-anchor="middle" font-size="11">4M</text>
<text class="fg" x="500.00" y="344" text-anchor="middle" font-size="11">6M</text>
<text class="fg" x="620.00" y="344" text-anchor="middle" font-size="11">8M</text>
<text class="fg" x="740.00" y="344" text-anchor="middle" font-size="11">10M</text>
<text class="fg" x="440.00" y="366" text-anchor="middle" font-size="12" font-weight="600">Lookups / second</text>
<text class="fg" x="132" y="82.5" text-anchor="end" font-size="12" font-weight="600">RadixRouter (cached)</text>
<rect class="bar" x="140" y="60.0" width="519.42" height="18" fill="#474A8A"/>
<text class="fg" x="665.42" y="73.0" font-size="11">8,657,014</text>
<rect class="bar" x="140" y="78.0" width="350.03" height="18" fill="#787CB5"/>
<text class="fg" x="496.03" y="91.0" font-size="11">5,833,903</text>
<text class="fg" x="132" y="126.5" text-anchor="end" font-size="12" font-weight="600">RadixRouter</text>
<rect class="bar" x="140" y="104.0" width="497.44" height="18" fill="#474A8A"/>
<text class="fg" x="643.44" y="117.0" font-size="11">8,290,693</text>
<rect class="bar" x="140" y="122.0" width="342.15" height="18" fill="#787CB5"/>
<text class="fg" x="488.15" y="135.0" font-size="11">5,702,521</text>
<text class="fg" x="132" y="170.5" text-anchor="end" font-size="12" font-weight="600">FastRoute</text>
<rect class="bar" x="140" y="148.0" width="443.67" height="18" fill="#474A8A"/>
<text class="fg" x="589.67" y="161.0" font-size="11">7,394,423</text>
<rect class="bar" x="140" y="166.0" width="315.34" height="18" fill="#787CB5"/>
<text class="fg" x="461.34" y="179.0" font-size="11">5,255,686</text>
<text class="fg" x="132" y="214.5" text-anchor="end" font-size="12" font-weight="600">FastRoute (cached)</text>
<rect class="bar" x="140" y="192.0" width="443.66" height="18" fill="#474A8A"/>
<text class="fg" x="589.66" y="205.0" font-size="11">7,394,382</text>
<rect class="bar" x="140" y="210.0" width="316.90" height="18" fill="#787CB5"/>
<text class="fg" x="462.90" y="223.0" font-size="11">5,281,600</text>
<text class="fg" x="132" y="258.5" text-anchor="end" font-size="12" font-weight="600">Symfony (cached)</text>
<rect class="bar" x="140" y="236.0" width="220.79" height="18" fill="#474A8A"/>
<text class="fg" x="366.79" y="249.0" font-size="11">3,679,820</text>
<rect class="bar" x="140" y="254.0" width="129.90" height="18" fill="#787CB5"/>
<text class="fg" x="275.90" y="267.0" font-size="11">2,164,989</text>
<text class="fg" x="132" y="302.5" text-anchor="end" font-size="12" font-weight="600">Symfony</text>
<rect class="bar" x="140" y="280.0" width="211.75" height="18" fill="#474A8A"/>
<text class="fg" x="357.75" y="293.0" font-size="11">3,529,221</text>
<rect class="bar" x="140" y="298.0" width="125.70" height="18" fill="#787CB5"/>
<text class="fg" x="271.70" y="311.0" font-size="11">2,094,952</text>
</svg>
