<svg xmlns="http://www.w3.org/2000/svg" viewBox="0 0 830 386" font-family="system-ui, -apple-system, 'Segoe UI', sans-serif">
<style>.bg{fill:#FFFFFF}.fg{fill:#000000}.bar{shape-rendering:crispEdges}@media(prefers-color-scheme:dark){.bg{fill:#1E1E1E}.fg{fill:#E6E6E6}}</style>
<rect class="bg" width="830" height="386"/>
<rect x="20" y="20" width="14" height="14" fill="#474A8A"/>
<text class="fg" x="40" y="32" font-size="12">JIT=tracing</text>
<rect x="160" y="20" width="14" height="14" fill="#787CB5"/>
<text class="fg" x="180" y="32" font-size="12">OPcache</text>
<text class="fg" x="140.00" y="344" text-anchor="middle" font-size="11">0</text>
<text class="fg" x="290.00" y="344" text-anchor="middle" font-size="11">2M</text>
<text class="fg" x="440.00" y="344" text-anchor="middle" font-size="11">4M</text>
<text class="fg" x="590.00" y="344" text-anchor="middle" font-size="11">6M</text>
<text class="fg" x="740.00" y="344" text-anchor="middle" font-size="11">8M</text>
<text class="fg" x="440.00" y="366" text-anchor="middle" font-size="12" font-weight="600">Lookups / second</text>
<text class="fg" x="132" y="82.5" text-anchor="end" font-size="12" font-weight="600">RadixRouter (cached)</text>
<rect class="bar" x="140" y="60.0" width="506.33" height="18" fill="#474A8A"/>
<text class="fg" x="652.33" y="73.0" font-size="11">6,751,064</text>
<rect class="bar" x="140" y="78.0" width="281.99" height="18" fill="#787CB5"/>
<text class="fg" x="427.99" y="91.0" font-size="11">3,759,907</text>
<text class="fg" x="132" y="126.5" text-anchor="end" font-size="12" font-weight="600">RadixRouter</text>
<rect class="bar" x="140" y="104.0" width="468.23" height="18" fill="#474A8A"/>
<text class="fg" x="614.23" y="117.0" font-size="11">6,243,103</text>
<rect class="bar" x="140" y="122.0" width="280.58" height="18" fill="#787CB5"/>
<text class="fg" x="426.58" y="135.0" font-size="11">3,741,129</text>
<text class="fg" x="132" y="170.5" text-anchor="end" font-size="12" font-weight="600">FastRoute (cached)</text>
<rect class="bar" x="140" y="148.0" width="407.36" height="18" fill="#474A8A"/>
<text class="fg" x="553.36" y="161.0" font-size="11">5,431,403</text>
<rect class="bar" x="140" y="166.0" width="282.81" height="18" fill="#787CB5"/>
<text class="fg" x="428.81" y="179.0" font-size="11">3,770,853</text>
<text class="fg" x="132" y="214.5" text-anchor="end" font-size="12" font-weight="600">FastRoute</text>
<rect class="bar" x="140" y="192.0" width="374.96" height="18" fill="#474A8A"/>
<text class="fg" x="520.96" y="205.0" font-size="11">4,999,408</text>
<rect class="bar" x="140" y="210.0" width="273.50" height="18" fill="#787CB5"/>
<text class="fg" x="419.50" y="223.0" font-size="11">3,646,612</text>
<text class="fg" x="132" y="258.5" text-anchor="end" font-size="12" font-weight="600">Symfony (cached)</text>
<rect class="bar" x="140" y="236.0" width="197.83" height="18" fill="#474A8A"/>
<text class="fg" x="343.83" y="249.0" font-size="11">2,637,720</text>
<rect class="bar" x="140" y="254.0" width="112.36" height="18" fill="#787CB5"/>
<text class="fg" x="258.36" y="267.0" font-size="11">1,498,200</text>
<text class="fg" x="132" y="302.5" text-anchor="end" font-size="12" font-weight="600">Symfony</text>
<rect class="bar" x="140" y="280.0" width="190.82" height="18" fill="#474A8A"/>
<text class="fg" x="336.82" y="293.0" font-size="11">2,544,269</text>
<rect class="bar" x="140" y="298.0" width="110.84" height="18" fill="#787CB5"/>
<text class="fg" x="256.84" y="311.0" font-size="11">1,477,920</text>
</svg>
