<svg xmlns="http://www.w3.org/2000/svg" viewBox="0 0 830 386" font-family="system-ui, -apple-system, 'Segoe UI', sans-serif">
<style>.bg{fill:#FFFFFF}.fg{fill:#000000}.bar{shape-rendering:crispEdges}@media(prefers-color-scheme:dark){.bg{fill:#1E1E1E}.fg{fill:#E6E6E6}}</style>
<rect class="bg" width="830" height="386"/>
<rect x="20" y="20" width="14" height="14" fill="#474A8A"/>
<text class="fg" x="40" y="32" font-size="12">JIT=tracing</text>
<rect x="160" y="20" width="14" height="14" fill="#787CB5"/>
<text class="fg" x="180" y="32" font-size="12">OPcache</text>
<text class="fg" x="140.00" y="344" text-anchor="middle" font-size="11">0</text>
<text class="fg" x="290.00" y="344" text-anchor="middle" font-size="11">1M</text>
<text class="fg" x="440.00" y="344" text-anchor="middle" font-size="11">2M</text>
<text class="fg" x="590.00" y="344" text-anchor="middle" font-size="11">3M</text>
<text class="fg" x="740.00" y="344" text-anchor="middle" font-size="11">4M</text>
<text class="fg" x="440.00" y="366" text-anchor="middle" font-size="12" font-weight="600">Lookups / second</text>
<text class="fg" x="132" y="82.5" text-anchor="end" font-size="12" font-weight="600">RadixRouter (cached)</text>
<rect class="bar" x="140" y="60.0" width="539.20" height="18" fill="#474A8A"/>
<text class="fg" x="685.20" y="73.0" font-size="11">3,594,666</text>
<rect class="bar" x="140" y="78.0" width="329.05" height="18" fill="#787CB5"/>
<text class="fg" x="475.05" y="91.0" font-size="11">2,193,652</text>
<text class="fg" x="132" y="126.5" text-anchor="end" font-size="12" font-weight="600">RadixRouter</text>
<rect class="bar" x="140" y="104.0" width="473.95" height="18" fill="#474A8A"/>
<text class="fg" x="619.95" y="117.0" font-size="11">3,159,693</text>
<rect class="bar" x="140" y="122.0" width="311.63" height="18" fill="#787CB5"/>
<text class="fg" x="457.63" y="135.0" font-size="11">2,077,512</text>
<text class="fg" x="132" y="170.5" text-anchor="end" font-size="12" font-weight="600">Symfony (cached)</text>
<rect class="bar" x="140" y="148.0" width="194.88" height="18" fill="#474A8A"/>
<text class="fg" x="340.88" y="161.0" font-size="11">1,299,202</text>
<rect class="bar" x="140" y="166.0" width="135.66" height="18" fill="#787CB5"/>
<text class="fg" x="281.66" y="179.0" font-size="11">904,382</text>
<text class="fg" x="132" y="214.5" text-anchor="end" font-size="12" font-weight="600">Symfony</text>
<rect class="bar" x="140" y="192.0" width="188.87" height="18" fill="#474A8A"/>
<text class="fg" x="334.87" y="205.0" font-size="11">1,259,135</text>
<rect class="bar" x="140" y="210.0" width="130.10" height="18" fill="#787CB5"/>
<text class="fg" x="276.10" y="223.0" font-size="11">867,335</text>
<text class="fg" x="132" y="258.5" text-anchor="end" font-size="12" font-weight="600">FastRoute (cached)</text>
<rect class="bar" x="140" y="236.0" width="115.18" height="18" fill="#474A8A"/>
<text class="fg" x="261.18" y="249.0" font-size="11">767,860</text>
<rect class="bar" x="140" y="254.0" width="98.87" height="18" fill="#787CB5"/>
<text class="fg" x="244.87" y="267.0" font-size="11">659,102</text>
<text class="fg" x="132" y="302.5" text-anchor="end" font-size="12" font-weight="600">FastRoute</text>
<rect class="bar" x="140" y="280.0" width="104.39" height="18" fill="#474A8A"/>
<text class="fg" x="250.39" y="293.0" font-size="11">695,915</text>
<rect class="bar" x="140" y="298.0" width="90.88" height="18" fill="#787CB5"/>
<text class="fg" x="236.88" y="311.0" font-size="11">605,874</text>
</svg>
